<svg width="30" height="30" viewBox="0 0 36 36" fill="none" xmlns="http://www.w3.org/2000/svg">
    <path d="M18.42 16.31C17.2953 16.2981 16.1992 15.9538 15.2698 15.3203C14.3403 14.6868 13.6191 13.7925 13.1969 12.75C12.7746 11.7075 12.6703 10.5633 12.8969 9.46163C13.1236 8.35992 13.6712 7.34989 14.4706 6.55873C15.2701 5.76756 16.2858 5.23061 17.3899 5.0155C18.4939 4.80038 19.6369 4.91671 20.6749 5.34983C21.713 5.78296 22.5997 6.51352 23.2234 7.44954C23.8471 8.38556 24.1799 9.48518 24.18 10.61C24.1694 12.1288 23.5573 13.5816 22.4776 14.65C21.398 15.7184 19.9389 16.3153 18.42 16.31ZM18.42 6.90996C17.6909 6.92179 16.9815 7.1488 16.381 7.56248C15.7805 7.97617 15.3156 8.55808 15.0447 9.23512C14.7739 9.91216 14.7091 10.6541 14.8586 11.3679C15.008 12.0816 15.3651 12.7353 15.8848 13.2467C16.4046 13.7582 17.0639 14.1047 17.78 14.2426C18.496 14.3806 19.2368 14.3039 19.9094 14.0222C20.582 13.7405 21.1564 13.2663 21.5604 12.6592C21.9643 12.0521 22.1799 11.3392 22.18 10.61C22.1694 9.62153 21.768 8.67747 21.0634 7.98415C20.3589 7.29082 19.4085 6.90462 18.42 6.90996V6.90996Z"
          fill="rgba(0, 0, 0, 0.9)"/>
    <path d="M18.42 16.31C17.2953 16.2981 16.1992 15.9538 15.2698 15.3203C14.3403 14.6868 13.6191 13.7925 13.1969 12.75C12.7746 11.7075 12.6703 10.5633 12.8969 9.46163C13.1236 8.35992 13.6712 7.34989 14.4706 6.55873C15.2701 5.76756 16.2858 5.23061 17.3899 5.0155C18.4939 4.80038 19.6369 4.91671 20.6749 5.34983C21.713 5.78296 22.5997 6.51352 23.2234 7.44954C23.8471 8.38556 24.1799 9.48518 24.18 10.61C24.1694 12.1288 23.5573 13.5816 22.4776 14.65C21.398 15.7184 19.9389 16.3153 18.42 16.31ZM18.42 6.90996C17.6909 6.92179 16.9815 7.1488 16.381 7.56248C15.7805 7.97617 15.3156 8.55808 15.0447 9.23512C14.7739 9.91216 14.7091 10.6541 14.8586 11.3679C15.008 12.0816 15.3651 12.7353 15.8848 13.2467C16.4046 13.7582 17.0639 14.1047 17.78 14.2426C18.496 14.3806 19.2368 14.3039 19.9094 14.0222C20.582 13.7405 21.1564 13.2663 21.5604 12.6592C21.9643 12.0521 22.1799 11.3392 22.18 10.61C22.1694 9.62153 21.768 8.67747 21.0634 7.98415C20.3589 7.29082 19.4085 6.90462 18.42 6.90996V6.90996Z"
          fill="rgba(0, 0, 0, 0.9)"/>
    <path d="M21.91 17.65C17.4745 16.8782 12.9084 17.5806 8.91 19.65C8.62617 19.8076 8.39116 20.0402 8.23066 20.3224C8.07016 20.6046 7.99037 20.9255 8 21.25V24.81C8 25.0752 8.10536 25.3295 8.2929 25.5171C8.48043 25.7046 8.73479 25.81 9 25.81C9.26522 25.81 9.51957 25.7046 9.70711 25.5171C9.89464 25.3295 10 25.0752 10 24.81V21.38C13.7077 19.5196 17.924 18.9293 22 19.7L21.91 17.65Z"
          fill="rgba(0, 0, 0, 0.9)"/>
    <path d="M33 22H26.3V20.52C26.3 20.2548 26.1946 20.0004 26.0071 19.8129C25.8196 19.6254 25.5652 19.52 25.3 19.52C25.0348 19.52 24.7804 19.6254 24.5929 19.8129C24.4054 20.0004 24.3 20.2548 24.3 20.52V22H17C16.7348 22 16.4804 22.1054 16.2929 22.2929C16.1054 22.4804 16 22.7348 16 23V33C16 33.2652 16.1054 33.5196 16.2929 33.7071C16.4804 33.8947 16.7348 34 17 34H33C33.2652 34 33.5196 33.8947 33.7071 33.7071C33.8946 33.5196 34 33.2652 34 33V23C34 22.7348 33.8946 22.4804 33.7071 22.2929C33.5196 22.1054 33.2652 22 33 22ZM32 32H18V24H24.3V24.41C24.3 24.6752 24.4054 24.9296 24.5929 25.1171C24.7804 25.3047 25.0348 25.41 25.3 25.41C25.5652 25.41 25.8196 25.3047 26.0071 25.1171C26.1946 24.9296 26.3 24.6752 26.3 24.41V24H32V32Z"
          fill="rgba(0, 0, 0, 0.9)"/>
    <path d="M21.81 27.42H27.77V28.82H21.81V27.42Z" fill="rgba(0, 0, 0, 0.9)"/>
    <path d="M10.84 12.24C8.07144 12.2863 5.3509 12.9707 2.89 14.24C2.62236 14.3814 2.39818 14.5928 2.24141 14.8517C2.08465 15.1107 2.00121 15.4073 2 15.71V18.81C2 19.0752 2.10536 19.3296 2.29289 19.5171C2.48043 19.7046 2.73478 19.81 3 19.81C3.26522 19.81 3.51957 19.7046 3.70711 19.5171C3.89464 19.3296 4 19.0752 4 18.81V15.91C6.3513 14.7396 8.95456 14.1661 11.58 14.24C11.2365 13.6133 10.9872 12.9394 10.84 12.24V12.24Z"
          fill="rgba(0, 0, 0, 0.9)"/>
    <path d="M33.11 14.23C30.9029 13.0722 28.4772 12.3908 25.99 12.23C25.8435 12.9281 25.5977 13.6016 25.26 14.23C27.6031 14.2861 29.9047 14.8598 32 15.91V18.81C32 19.0752 32.1054 19.3296 32.2929 19.5171C32.4804 19.7046 32.7348 19.81 33 19.81C33.2652 19.81 33.5196 19.7046 33.7071 19.5171C33.8946 19.3296 34 19.0752 34 18.81V15.71C34.0006 15.4056 33.918 15.1068 33.7612 14.846C33.6043 14.5852 33.3791 14.3721 33.11 14.23V14.23Z"
          fill="rgba(0, 0, 0, 0.9)"/>
    <path d="M10.66 10.61V9.94002C9.87662 9.83518 9.16385 9.43225 8.67007 8.81511C8.17629 8.19797 7.93955 7.41417 8.00913 6.62687C8.07871 5.83957 8.44926 5.10944 9.04362 4.58847C9.63798 4.0675 10.4104 3.79583 11.2 3.83002C12.0213 3.82853 12.8107 4.14788 13.4 4.72002C13.9199 4.2912 14.4909 3.92843 15.1 3.64002C14.4196 2.85767 13.5181 2.29985 12.5144 2.04009C11.5106 1.78032 10.4517 1.83079 9.47724 2.18486C8.50275 2.53892 7.65842 3.17996 7.05553 4.02347C6.45264 4.86698 6.11949 5.87338 6.1 6.91002C6.12098 8.17877 6.6142 9.39414 7.4833 10.3187C8.3524 11.2433 9.53497 11.8107 10.8 11.91C10.7152 11.4816 10.6683 11.0466 10.66 10.61V10.61Z"
          fill="rgba(0, 0, 0, 0.9)"/>
    <path d="M24.77 1.83C24.0828 1.83015 23.4025 1.9673 22.7689 2.23344C22.1353 2.49958 21.5612 2.88936 21.08 3.38C21.756 3.62497 22.3953 3.96143 22.98 4.38C23.4468 4.05593 23.9929 3.86463 24.5599 3.8265C25.1269 3.78838 25.6937 3.90486 26.1997 4.16352C26.7057 4.42218 27.1321 4.81332 27.4333 5.29524C27.7345 5.77716 27.8992 6.33179 27.91 6.9C27.9037 7.48363 27.7322 8.05355 27.4155 8.54377C27.0987 9.034 26.6495 9.42447 26.12 9.67C26.1602 9.97836 26.1803 10.289 26.18 10.6C26.1773 11.002 26.1439 11.4031 26.08 11.8C27.1694 11.5199 28.1356 10.8876 28.8283 10.0014C29.521 9.11514 29.9013 8.02478 29.91 6.9C29.8968 5.5473 29.3488 4.2548 28.3857 3.30483C27.4226 2.35487 26.1228 1.82465 24.77 1.83V1.83Z"
          fill="rgba(0, 0, 0, 0.9)"/>
</svg>
